<?xml version="1.0" encoding="iso-8859-1"?>
<!-- Uploaded to: SVG Repo, www.svgrepo.com, Generator: SVG Repo Mixer Tools -->
<svg fill="#000000" height="800px" width="800px" version="1.1" id="Layer_1" xmlns="http://www.w3.org/2000/svg" xmlns:xlink="http://www.w3.org/1999/xlink" 
	 viewBox="0 0 512 512" xml:space="preserve">
<g>
	<g>
		<path d="M384,149.4h64V42.7C448,22.5,432.3,0,409.7,0H320c-11.8,0-21.3,9.6-21.4,21.3c0,0.2-0.5,21.3-21.3,21.3
			c-13.8,0-21.3-3.4-21.3-21.3C256,9.6,246.5,0,234.7,0H192v512h42.8c11.8,0,21.3-9.5,21.3-21.3c0-17.9,7.5-21.3,21.3-21.3
			c20.7,0,21.3,21.1,21.3,21.3c0,11.7,9.5,21.3,21.3,21.3h89.7c22.6,0,38.3-22.5,38.3-42.7V362.6h-64c-11.8,0-21.3-9.5-21.3-21.3
			c0-11.7,9.5-21.3,21.3-21.3h64v-42.7H341.3c-11.8,0-21.3-9.6-21.3-21.3c0-11.7,9.5-21.3,21.3-21.3H448V192h-64
			c-11.8,0-21.3-9.5-21.3-21.3C362.7,158.9,372.2,149.3,384,149.4z M277.3,362.7h-42.7V320h42.7V362.7z M277.3,277.4h-42.7v-42.7
			h42.7V277.4z M277.3,192h-42.7v-42.7h42.7V192z"/>
	</g>
</g>
<g>
	<g>
		<path d="M85.3,0C73.5,0,64,9.6,64,21.3v469.4c0,11.7,9.5,21.3,21.3,21.3h64V0H85.3z"/>
	</g>
</g>
</svg>